<svg width="240" height="240" viewBox="0 0 240 240" fill="none" xmlns="http://www.w3.org/2000/svg">
  <circle cx="120" cy="120" r="76" stroke="#282B86" stroke-width="8"/>
  <path d="M44 120h152M120 44v152" stroke="#282B86" stroke-width="5"/>
  <path d="M120 44c-34 25-50 50-50 76s16 51 50 76M120 44c34 25 50 50 50 76s-16 51-50 76" stroke="#282B86" stroke-width="5"/>
  <path d="M56 86c40 18 88 18 128 0M56 154c40-18 88-18 128 0" stroke="#282B86" stroke-width="5"/>
  <path d="M127 56c11 42-40 47-37 88 1 22 20 39 44 42-22-19 9-38 3-62-3-12-13-22-10-39z" fill="#E9182D"/>
  <path d="M128 95c-9 28-31 31-29 58 1 19 15 31 32 35-9-12 12-26 12-45 0-17-13-25-15-48z" fill="#E9182D"/>
  <path d="M127 143c-5 14-15 18-15 30 0 10 8 18 19 20-2-12 15-19 13-34-1-8-8-13-17-16z" fill="#FFC400"/>
</svg>
