<svg width="640" height="400" viewBox="0 0 640 400" xmlns="http://www.w3.org/2000/svg">
  <rect width="640" height="400" fill="#f6f3ef"/>
  <g stroke="#d9d9d9" stroke-width="6" fill="none">
    <path d="M-20 70h700M-20 150h700M-20 230h700M-20 310h700"/>
    <path d="M80-20v460M190-20v460M300-20v460M410-20v460M520-20v460"/>
    <path d="M0 380C150 280 220 280 360 180S520 70 660 40" stroke="#ffb85c" stroke-width="10"/>
  </g>
  <path d="M320 105c-40 0-72 32-72 72 0 54 72 118 72 118s72-64 72-118c0-40-32-72-72-72z" fill="#ff5f57"/>
  <circle cx="320" cy="177" r="30" fill="#fff"/>
  <text x="320" y="355" text-anchor="middle" font-family="Arial, sans-serif" font-size="34" font-weight="700" fill="#555">서울시 광진구 자양로 45길 62</text>
</svg>
